<svg width="30" height="30" viewBox="0 0 30 30" fill="none" xmlns="http://www.w3.org/2000/svg">
<g clip-path="url(#clip0_1_2)">
<path d="M30 0H0V30H30V0Z" fill="#5F0B72"/>
<path d="M22.3486 19.1609C21.2766 19.2421 20.204 19.3287 19.1334 19.4311C18.4761 19.4937 17.8215 19.5886 17.1346 19.6732C17.2068 19.1919 17.2721 18.7456 17.3457 18.2657C17.4378 18.3344 17.4832 18.3654 17.532 18.3984C18.1928 18.8659 18.8247 18.8047 19.3624 18.2052C19.7749 17.7431 19.9998 17.1738 20.173 16.5928C20.4481 15.6652 20.6365 14.7274 20.3793 13.7606C20.1565 12.9197 19.3376 12.7031 18.7057 13.3178C18.5792 13.4402 18.45 13.5592 18.3399 13.6616C18.3118 13.5626 18.3138 13.4217 18.2444 13.3529C18.1782 13.2841 18.0944 13.2347 18.0022 13.2102C17.91 13.1856 17.8128 13.1868 17.7211 13.2136C17.6295 13.2404 17.547 13.2917 17.4825 13.3621C17.418 13.4325 17.374 13.5192 17.3553 13.6128C17.1215 14.7927 16.8995 15.9753 16.6554 17.1525C16.6251 17.2983 16.5055 17.4399 16.3941 17.5492C16.3205 17.618 16.1878 17.6304 16.0799 17.6675C16.0414 17.552 15.9595 17.4316 15.9726 17.3237C16.0207 16.9063 16.0874 16.491 16.1692 16.0785C16.3109 15.3593 16.4738 14.6442 16.6176 13.9256C16.6698 13.6651 16.5625 13.5 16.2875 13.4326C15.8983 13.3378 15.8289 13.3639 15.5779 13.8163C14.8986 13.4168 14.409 13.4849 13.8514 14.0611C13.3783 14.55 13.0889 15.1475 12.864 15.7801C12.5539 16.6499 12.3889 17.5368 12.6055 18.4582C12.7011 18.8653 12.9183 19.1664 13.3433 19.2909C13.7985 19.4243 14.1766 19.2971 14.4895 18.965C14.6252 18.8045 14.7517 18.6365 14.8683 18.4616C14.9577 18.7869 15.1502 19.0433 15.4872 19.0227C15.7808 19.0041 16.0661 18.8639 16.3611 18.7759C16.2995 19.0269 16.2508 19.281 16.2153 19.537C16.1933 19.7708 16.0778 19.8382 15.8653 19.8705C14.6669 20.0513 13.4698 20.2459 12.272 20.4384C11.8925 20.4996 11.5157 20.5698 11.0907 20.6447C11.2647 20.0259 11.4242 19.4621 11.581 18.8976C12.008 17.3622 12.4384 15.8275 12.8544 14.2908C12.963 13.8892 12.7953 13.7317 12.3917 13.828C11.9158 13.9421 11.6209 14.244 11.4559 14.7102C11.1265 15.6405 10.7889 16.5667 10.4149 17.4825C10.309 17.7411 10.0869 17.9638 9.87509 18.1612C9.77677 18.2512 9.5313 18.2987 9.43298 18.2389C9.33465 18.179 9.26933 17.9556 9.28102 17.8112C9.3144 17.5299 9.37284 17.2522 9.45567 16.9813C9.60762 16.4154 9.79327 15.8571 9.9246 15.2864C10.0099 14.9137 9.7032 14.618 9.27277 14.5988C8.99224 14.585 8.91316 14.7212 8.89185 15.1585C8.87786 15.3717 8.83744 15.5823 8.77152 15.7856C8.67732 16.0936 8.53362 16.3879 8.45111 16.6987C8.2964 17.2831 8.13826 17.871 8.03856 18.4671C7.9698 18.9044 8.06331 19.3431 8.4793 19.6044C8.89529 19.8657 9.30922 19.7577 9.6812 19.482C9.88747 19.3273 10.0793 19.1472 10.3124 18.9491C10.0937 19.6175 9.89435 20.2494 9.67501 20.8744C9.64338 20.9651 9.52305 21.0387 9.42748 21.091C8.89735 21.3818 8.33353 21.6218 7.83434 21.958C6.70739 22.7144 5.91873 23.7395 5.6382 25.101C5.51443 25.7005 5.62445 26.2437 6.12363 26.637C6.63932 27.0448 7.20246 26.9808 7.75596 26.7092C8.29159 26.45 8.67113 26.0134 9.02593 25.5527C9.74858 24.6142 10.1666 23.5285 10.5276 22.4187C10.5964 22.2042 10.7016 22.099 10.9189 22.0556C12.1565 21.8088 13.39 21.5482 14.627 21.2993C15.0347 21.2175 15.448 21.1618 15.8811 21.0896C15.888 21.236 15.866 21.3447 15.9031 21.4251C15.9719 21.5743 16.051 21.7827 16.1747 21.826C16.2985 21.8693 16.5185 21.7792 16.6286 21.6747C16.7544 21.5387 16.8401 21.3704 16.8761 21.1886C16.9187 20.9995 17.0102 20.9321 17.1862 20.9094C18.3115 20.766 19.4369 20.6195 20.5622 20.4701C21.2306 20.3807 21.9016 20.3023 22.5645 20.1827C22.9083 20.1208 23.0148 19.821 22.8801 19.5013C22.8436 19.3924 22.771 19.2993 22.6743 19.2374C22.5776 19.1755 22.4627 19.1485 22.3486 19.1609ZM17.6812 17.3141C17.8875 16.5426 18.0787 15.7656 18.3262 15.0072C18.4121 14.7439 18.6177 14.5012 18.8185 14.2976C19.055 14.057 19.2929 14.1416 19.3761 14.4668C19.4074 14.6131 19.4292 14.7612 19.4415 14.9103C19.4058 15.6409 19.2162 16.3558 18.8852 17.0081C18.703 17.3808 18.4286 17.6757 17.9515 17.6345C17.7562 17.618 17.6187 17.5348 17.6812 17.3141ZM15.404 14.9467C15.1489 15.8055 14.8697 16.656 14.5899 17.5073C14.5468 17.6165 14.4814 17.7155 14.398 17.7981C14.1918 18.0182 13.894 17.9913 13.7703 17.7211C13.6706 17.5052 13.6327 17.2597 13.5894 17.0947C13.7029 16.2373 13.8741 15.4885 14.4764 14.9288C14.6364 14.7874 14.8219 14.678 15.023 14.6064C15.2623 14.5142 15.4748 14.6971 15.4005 14.9467H15.404ZM7.76284 25.2C7.62376 25.3627 7.45939 25.502 7.27603 25.6125C7.16532 25.6813 6.95286 25.717 6.87654 25.6552C6.82444 25.602 6.78554 25.5373 6.76297 25.4664C6.7404 25.3955 6.73479 25.3202 6.74658 25.2467C6.81819 24.9533 6.92921 24.6708 7.07663 24.4072C7.55931 23.567 8.26133 22.9481 9.22395 22.5108C8.84097 23.5326 8.4181 24.4313 7.76284 25.2ZM21.7256 16.2696C21.7614 16.0902 21.8508 16.0097 22.0495 15.9685C22.5989 15.8522 23.101 15.5745 23.4916 15.171C23.8821 14.7674 24.1433 14.2565 24.2415 13.7036C24.3659 12.9974 23.9555 12.4879 23.239 12.4583C23.0529 12.4476 22.8665 12.4747 22.6912 12.5382C22.5159 12.6017 22.3554 12.7001 22.2193 12.8276C21.0882 13.872 20.6434 15.2156 20.5265 16.6946C20.5526 16.9421 20.5657 17.1759 20.6049 17.4076C20.7424 18.2107 21.3667 18.617 22.1526 18.417C22.8216 18.2464 23.3421 17.8442 23.809 17.3539C24.1205 17.026 24.1569 16.8726 23.9761 16.4676C23.8248 16.128 23.6852 16.1239 23.4184 16.3886C23.1643 16.6432 22.8882 16.8749 22.5933 17.081C22.3768 17.2302 22.0997 17.3326 21.8542 17.1429C21.6087 16.9531 21.6624 16.654 21.694 16.3817C21.6954 16.3432 21.7181 16.3074 21.7256 16.2696ZM22.6814 13.7194C22.7824 13.5619 22.9811 13.4106 23.1448 13.5482C23.2417 13.63 23.2644 13.8975 23.2135 14.0412C23.019 14.5637 22.5947 14.8333 22.0825 14.9852L21.9766 14.9082C22.2083 14.5108 22.4318 14.1072 22.6814 13.7194Z" fill="white"/>
<path d="M15.9939 3.14914C15.1868 3.14907 14.3972 3.3848 13.7222 3.82734C13.0472 4.26989 12.5161 4.89998 12.1943 5.6402C11.8725 6.38042 11.774 7.19852 11.9108 7.99398C12.0476 8.78945 12.4138 9.52762 12.9644 10.1178L12.8681 11.8739C12.8662 11.9098 12.8743 11.9455 12.8917 11.977C12.909 12.0085 12.9348 12.0345 12.9661 12.0522C12.9974 12.0698 13.0331 12.0782 13.069 12.0766C13.1049 12.075 13.1397 12.0634 13.1693 12.043L14.4757 11.1492C15.0428 11.3731 15.6524 11.4691 16.2609 11.4303C16.8694 11.3915 17.4618 11.2188 17.9959 10.9247C18.5301 10.6306 18.9927 10.2222 19.3508 9.72868C19.7088 9.23518 19.9536 8.66872 20.0676 8.06973C20.1816 7.47074 20.1619 6.85398 20.0101 6.26345C19.8582 5.67293 19.5779 5.12319 19.1892 4.65347C18.8004 4.18374 18.3127 3.80561 17.761 3.54605C17.2093 3.28649 16.6071 3.15191 15.9973 3.15189L15.9939 3.14914ZM16.2957 8.93929C16.1942 9.1157 16.0437 9.25898 15.8626 9.35184C15.6612 9.44872 15.4396 9.49588 15.2162 9.48936C14.825 9.48936 14.508 9.37247 14.2729 9.14144C14.0377 8.91041 13.9146 8.59618 13.9057 8.20632C13.9036 8.15272 13.922 8.10033 13.9573 8.05987C13.983 8.03281 14.0143 8.01158 14.0489 7.99758C14.0835 7.98359 14.1207 7.97716 14.158 7.97873C14.1999 7.97412 14.2423 7.97781 14.2828 7.98961C14.3233 8.00141 14.361 8.02108 14.3939 8.04749C14.4254 8.07842 14.4438 8.12025 14.4455 8.16438C14.4545 8.30821 14.4961 8.44811 14.5672 8.57349C14.6348 8.67411 14.7281 8.75483 14.8374 8.80727C14.9639 8.86885 15.1031 8.89972 15.2437 8.89735C15.4576 8.89735 15.624 8.84784 15.7388 8.7502C15.7932 8.70477 15.8364 8.6475 15.8652 8.5828C15.8941 8.51809 15.9077 8.44764 15.9052 8.37684C15.9076 8.29581 15.8871 8.21573 15.8461 8.14582C15.8015 8.07636 15.7387 8.02047 15.6645 7.98423C15.4692 7.90003 15.2676 7.83106 15.0615 7.77796C14.8408 7.72403 14.6295 7.63735 14.4345 7.5208C14.3061 7.43309 14.2015 7.31498 14.1299 7.17701C14.0556 7.0325 14.018 6.87192 14.0205 6.70945C14.016 6.56723 14.0414 6.42565 14.0952 6.29392C14.149 6.16218 14.2299 6.04325 14.3327 5.94486C14.539 5.7489 14.8174 5.6492 15.1612 5.6492C15.3755 5.64552 15.5875 5.69265 15.7801 5.78671C15.9569 5.87614 16.1039 6.01521 16.2029 6.18689C16.305 6.37163 16.3596 6.57884 16.3618 6.7899C16.3633 6.84804 16.3426 6.90458 16.304 6.94804C16.2796 6.97347 16.2502 6.99352 16.2177 7.0069C16.1851 7.02028 16.1501 7.0267 16.1149 7.02574C16.0726 7.03093 16.0296 7.02751 15.9886 7.0157C15.9476 7.00388 15.9094 6.98391 15.8763 6.95698C15.8402 6.92441 15.8182 6.87901 15.8151 6.83047C15.7972 6.62419 15.7347 6.47292 15.6295 6.37597C15.5243 6.27902 15.3696 6.23089 15.1709 6.23089C14.9721 6.23089 14.8126 6.27421 14.7115 6.3581C14.6641 6.39545 14.6261 6.44339 14.6006 6.49807C14.575 6.55276 14.5626 6.61267 14.5644 6.67301C14.5606 6.72354 14.5677 6.7743 14.5854 6.82179C14.6031 6.86927 14.6309 6.91235 14.6669 6.94804C14.7191 6.99549 14.8566 7.07318 15.2169 7.16876C15.4348 7.22153 15.6478 7.2926 15.8536 7.38122C16.0353 7.46656 16.1897 7.60055 16.2999 7.76833C16.4047 7.94061 16.4577 8.13947 16.4525 8.34109C16.4554 8.55101 16.4012 8.75776 16.2957 8.93929ZM18.7621 6.27215L17.16 9.18613C17.123 9.2536 17.0607 9.30361 16.9868 9.32514C16.9129 9.34668 16.8335 9.33798 16.7661 9.30096C16.6986 9.26394 16.6486 9.20163 16.627 9.12775C16.6055 9.05386 16.6142 8.97445 16.6512 8.90697L18.254 5.9923C18.2912 5.92508 18.3536 5.87534 18.4274 5.85395C18.5013 5.83257 18.5805 5.84127 18.648 5.87816C18.7152 5.91543 18.7649 5.97778 18.7863 6.05161C18.8077 6.12543 18.799 6.20472 18.7621 6.27215Z" fill="#01D0B5"/>
</g>
<defs>
<clipPath id="clip0_1_2">
<rect width="30" height="30" fill="white"/>
</clipPath>
</defs>
</svg>