<svg width="30" height="30" viewBox="0 0 30 30" fill="none" xmlns="http://www.w3.org/2000/svg">
<path fill-rule="evenodd" clip-rule="evenodd" d="M15 0C23.2843 0 30 6.70552 30 14.9773C30 23.249 23.2843 29.9545 15 29.9545C13.1879 29.9545 11.5803 29.6344 9.96664 29.0628C8.32874 28.4826 6.85604 28.6242 5.61016 28.9169C4.98928 29.0629 4.47753 29.2996 3.92431 29.3975C3.44542 29.4823 2.97786 29.4452 2.52953 29.2816C2.09706 29.1238 1.68234 28.8483 1.29282 28.4511C-0.172806 26.9566 0.872224 25.3181 1.15219 23.6134C1.33809 22.4812 1.27185 21.1748 0.822394 19.8791C0.28969 18.3434 0 16.6941 0 14.9773C0 6.70552 6.71572 0 15 0Z" fill="url(#paint0_linear_1_7)"/>
<path fill-rule="evenodd" clip-rule="evenodd" d="M4.72369 12.3801V20.6191C4.72369 20.6191 5.28258 22.2958 6.54458 21.0518L6.59867 18.8703C6.59867 18.8703 6.79694 18.3295 7.39189 18.3836C7.39189 18.3836 8.70808 18.7801 9.71761 18.4016C11.9242 17.5742 12.1898 14.4531 11.0024 12.637C10.3117 11.5805 8.91523 11.1366 7.22965 11.8031C7.22965 11.8031 6.76087 11.9834 6.02172 11.695C5.28258 11.4065 4.77778 11.9294 4.72369 12.2899V12.3801ZM8.1491 12.7046C9.06508 12.7046 9.80772 13.7781 9.80772 15.1024C9.80772 16.4266 9.06508 17.5001 8.1491 17.5001C7.23309 17.5001 6.49048 16.4266 6.49048 15.1024C6.49048 13.7781 7.23309 12.7046 8.1491 12.7046Z" fill="white"/>
<path d="M14.5725 9.1517H12.9979C12.9137 9.1517 12.8455 9.21805 12.8455 9.2999V18.4015C12.8455 18.4833 12.9137 18.5497 12.9979 18.5497H14.5725C14.6567 18.5497 14.725 18.4833 14.725 18.4015V9.2999C14.725 9.21805 14.6567 9.1517 14.5725 9.1517Z" fill="white"/>
<path fill-rule="evenodd" clip-rule="evenodd" d="M16.2096 11.7359H17.7842C17.8681 11.7359 17.9367 11.8045 17.9367 11.8884V18.3971C17.9367 18.481 17.868 18.5496 17.7842 18.5496H16.2096C16.1258 18.5496 16.0571 18.481 16.0571 18.3971V11.8884C16.0571 11.8045 16.1257 11.7359 16.2096 11.7359Z" fill="white"/>
<path d="M16.9783 11.1579C17.5032 11.1579 17.9286 10.7455 17.9286 10.2369C17.9286 9.72823 17.5032 9.31589 16.9783 9.31589C16.4534 9.31589 16.028 9.72823 16.028 10.2369C16.028 10.7455 16.4534 11.1579 16.9783 11.1579Z" fill="#FA78C5"/>
<path fill-rule="evenodd" clip-rule="evenodd" d="M21.18 13.7215V17.9009C21.18 18.2707 20.8775 18.5733 20.5076 18.5733H20.0168C19.6469 18.5733 19.3444 18.2707 19.3444 17.9009V14.1628C19.2819 13.0472 19.0011 11.3451 20.819 11.8129C21.9035 12.0528 21.8964 11.7843 22.7385 11.6109C23.2628 11.5029 24.25 11.4265 24.8595 12.1715C25.3382 12.7566 25.2732 13.055 25.2732 13.7215V17.9009C25.2732 18.2707 24.9707 18.5733 24.6008 18.5733H24.11C23.7402 18.5733 23.4376 18.2707 23.4376 17.9009V13.7215C23.4376 13.0773 22.903 12.603 22.2361 12.6284C21.6257 12.6517 21.18 13.2369 21.18 13.7215Z" fill="white"/>
<defs>
<linearGradient id="paint0_linear_1_7" x1="4.31858" y1="26.6356" x2="26.0116" y2="5.4002" gradientUnits="userSpaceOnUse">
<stop stop-color="#0581F6"/>
<stop offset="0.0666667" stop-color="#0891EE"/>
<stop offset="0.219608" stop-color="#0BA1E6"/>
<stop offset="0.509804" stop-color="#13CCD1"/>
<stop offset="1" stop-color="#16DEC8"/>
</linearGradient>
</defs>
</svg>